<mxfile host="app.diagrams.net" agent="Mozilla/5.0 (Windows NT 10.0; Win64; x64) AppleWebKit/537.36 (KHTML, like Gecko) Chrome/133.0.0.0 Safari/537.36 Edg/133.0.0.0" version="26.0.14">
  <diagram name="Page-1" id="BZfaleFIyg8LBb4o67uC">
    <mxGraphModel dx="2581" dy="2024" grid="1" gridSize="10" guides="1" tooltips="1" connect="1" arrows="1" fold="1" page="1" pageScale="1" pageWidth="850" pageHeight="1100" math="0" shadow="0">
      <root>
        <mxCell id="0" />
        <mxCell id="xdvY0asgbzEStagytL9J-31" value="Untitled Layer" style="" parent="0" />
        <mxCell id="xdvY0asgbzEStagytL9J-37" style="edgeStyle=orthogonalEdgeStyle;rounded=0;orthogonalLoop=1;jettySize=auto;html=1;exitX=0;exitY=0;exitDx=350;exitDy=0;exitPerimeter=0;entryX=0.456;entryY=1.004;entryDx=0;entryDy=0;entryPerimeter=0;" edge="1" parent="xdvY0asgbzEStagytL9J-31" source="xdvY0asgbzEStagytL9J-32" target="xdvY0asgbzEStagytL9J-38">
          <mxGeometry relative="1" as="geometry">
            <mxPoint x="930" y="279.6666666666665" as="targetPoint" />
            <Array as="points">
              <mxPoint x="842" y="280" />
            </Array>
          </mxGeometry>
        </mxCell>
        <mxCell id="xdvY0asgbzEStagytL9J-32" value="" style="verticalAlign=top;align=left;spacingTop=8;spacingLeft=2;spacingRight=12;shape=cube;size=10;direction=south;fontStyle=4;html=1;whiteSpace=wrap;" vertex="1" parent="xdvY0asgbzEStagytL9J-31">
          <mxGeometry x="-57" y="-70" width="810" height="710" as="geometry" />
        </mxCell>
        <mxCell id="xdvY0asgbzEStagytL9J-34" value="" style="verticalAlign=top;align=left;spacingTop=8;spacingLeft=2;spacingRight=12;shape=cube;size=10;direction=south;fontStyle=4;html=1;whiteSpace=wrap;" vertex="1" parent="xdvY0asgbzEStagytL9J-31">
          <mxGeometry x="-4" y="10" width="710" height="570" as="geometry" />
        </mxCell>
        <mxCell id="xdvY0asgbzEStagytL9J-38" value="" style="verticalAlign=top;align=left;spacingTop=8;spacingLeft=2;spacingRight=12;shape=cube;size=10;direction=south;fontStyle=4;html=1;whiteSpace=wrap;" vertex="1" parent="xdvY0asgbzEStagytL9J-31">
          <mxGeometry x="980" y="80" width="280" height="440" as="geometry" />
        </mxCell>
        <mxCell id="xdvY0asgbzEStagytL9J-40" value="" style="verticalAlign=top;align=left;spacingTop=8;spacingLeft=2;spacingRight=12;shape=cube;size=10;direction=south;fontStyle=4;html=1;whiteSpace=wrap;" vertex="1" parent="xdvY0asgbzEStagytL9J-31">
          <mxGeometry x="1010" y="140" width="210" height="340" as="geometry" />
        </mxCell>
        <mxCell id="1" style="" parent="0" />
        <mxCell id="xdvY0asgbzEStagytL9J-1" value="" style="verticalAlign=top;align=left;spacingTop=8;spacingLeft=2;spacingRight=12;shape=cube;size=10;direction=south;fontStyle=4;html=1;whiteSpace=wrap;" vertex="1" parent="1">
          <mxGeometry x="30" y="100" width="630" height="430" as="geometry" />
        </mxCell>
        <mxCell id="xdvY0asgbzEStagytL9J-2" value="&amp;lt;&amp;lt;executionEnvironment&amp;gt;&amp;gt;&lt;div&gt;&lt;b&gt;Catalina Servlet 2.4 / JSP 2.0 Container&lt;/b&gt;&lt;/div&gt;" style="text;html=1;align=center;verticalAlign=middle;resizable=0;points=[];autosize=1;strokeColor=none;fillColor=none;" vertex="1" parent="1">
          <mxGeometry x="230" y="111" width="250" height="40" as="geometry" />
        </mxCell>
        <mxCell id="xdvY0asgbzEStagytL9J-4" value="&amp;lt;&amp;lt;artifact&amp;gt;&amp;gt;&lt;div&gt;&lt;b&gt;book_club_app.war&lt;/b&gt;&lt;/div&gt;" style="rounded=0;whiteSpace=wrap;html=1;" vertex="1" parent="1">
          <mxGeometry x="110" y="290" width="120" height="60" as="geometry" />
        </mxCell>
        <mxCell id="xdvY0asgbzEStagytL9J-5" value="&amp;lt;&amp;lt;deployment spec&amp;gt;&amp;gt;&lt;div&gt;&lt;b&gt;web.fxml&lt;/b&gt;&lt;/div&gt;" style="rounded=0;whiteSpace=wrap;html=1;" vertex="1" parent="1">
          <mxGeometry x="310" y="180" width="140" height="60" as="geometry" />
        </mxCell>
        <mxCell id="xdvY0asgbzEStagytL9J-7" value="&amp;lt;&amp;lt;artifact&amp;gt;&amp;gt;&lt;div&gt;&lt;b&gt;user_services.jar&lt;/b&gt;&lt;/div&gt;" style="rounded=0;whiteSpace=wrap;html=1;" vertex="1" parent="1">
          <mxGeometry x="310" y="290" width="140" height="60" as="geometry" />
        </mxCell>
        <mxCell id="xdvY0asgbzEStagytL9J-8" value="" style="shape=note;size=20;whiteSpace=wrap;html=1;" vertex="1" parent="1">
          <mxGeometry x="360" y="390" width="40" height="60" as="geometry" />
        </mxCell>
        <mxCell id="xdvY0asgbzEStagytL9J-9" value="" style="html=1;verticalLabelPosition=bottom;align=center;labelBackgroundColor=#ffffff;verticalAlign=top;strokeWidth=0.5;strokeColor=light-dark(#000000, #32a0ff);shadow=0;dashed=0;shape=mxgraph.ios7.icons.settings;" vertex="1" parent="1">
          <mxGeometry x="370" y="418" width="20" height="20" as="geometry" />
        </mxCell>
        <mxCell id="xdvY0asgbzEStagytL9J-10" value="" style="html=1;verticalLabelPosition=bottom;align=center;labelBackgroundColor=#ffffff;verticalAlign=top;strokeWidth=0.5;strokeColor=light-dark(#000000, #32a0ff);shadow=0;dashed=0;shape=mxgraph.ios7.icons.settings;" vertex="1" parent="1">
          <mxGeometry x="368" y="413" width="10" height="8" as="geometry" />
        </mxCell>
        <mxCell id="xdvY0asgbzEStagytL9J-11" value="web_tools_lib.jar" style="text;html=1;align=center;verticalAlign=middle;whiteSpace=wrap;rounded=0;" vertex="1" parent="1">
          <mxGeometry x="351" y="448" width="60" height="30" as="geometry" />
        </mxCell>
        <mxCell id="xdvY0asgbzEStagytL9J-12" value="&amp;lt;&amp;lt;components&amp;gt;&amp;gt;&lt;div&gt;&lt;b&gt;OnlineOrders&lt;/b&gt;&lt;/div&gt;" style="rounded=0;whiteSpace=wrap;html=1;" vertex="1" parent="1">
          <mxGeometry x="100" y="433" width="140" height="60" as="geometry" />
        </mxCell>
        <mxCell id="xdvY0asgbzEStagytL9J-14" value="" style="endArrow=none;html=1;rounded=0;exitX=0.814;exitY=0.962;exitDx=0;exitDy=0;exitPerimeter=0;startArrow=oval;startFill=0;endSize=6;targetPerimeterSpacing=10;startSize=15;" edge="1" parent="1">
          <mxGeometry width="50" height="50" relative="1" as="geometry">
            <mxPoint x="49.75999999999999" y="462.89" as="sourcePoint" />
            <mxPoint x="100" y="462.98" as="targetPoint" />
          </mxGeometry>
        </mxCell>
        <mxCell id="xdvY0asgbzEStagytL9J-16" value="" style="endArrow=open;html=1;rounded=0;exitX=0.5;exitY=1;exitDx=0;exitDy=0;endFill=0;dashed=1;dashPattern=8 8;startSize=10;endSize=10;" edge="1" parent="1" source="xdvY0asgbzEStagytL9J-4" target="xdvY0asgbzEStagytL9J-12">
          <mxGeometry width="50" height="50" relative="1" as="geometry">
            <mxPoint x="190" y="380" as="sourcePoint" />
            <mxPoint x="240" y="330" as="targetPoint" />
          </mxGeometry>
        </mxCell>
        <mxCell id="xdvY0asgbzEStagytL9J-17" value="" style="endArrow=open;html=1;rounded=0;exitX=0;exitY=0.5;exitDx=0;exitDy=0;endFill=0;dashed=1;dashPattern=8 8;endSize=10;" edge="1" parent="1" source="xdvY0asgbzEStagytL9J-5">
          <mxGeometry width="50" height="50" relative="1" as="geometry">
            <mxPoint x="280" y="210" as="sourcePoint" />
            <mxPoint x="230" y="310" as="targetPoint" />
          </mxGeometry>
        </mxCell>
        <mxCell id="xdvY0asgbzEStagytL9J-18" value="" style="endArrow=diamondThin;html=1;rounded=0;endFill=1;entryX=1;entryY=0.5;entryDx=0;entryDy=0;endSize=10;" edge="1" parent="1" source="xdvY0asgbzEStagytL9J-7" target="xdvY0asgbzEStagytL9J-4">
          <mxGeometry width="50" height="50" relative="1" as="geometry">
            <mxPoint x="320" y="220" as="sourcePoint" />
            <mxPoint x="240" y="320" as="targetPoint" />
          </mxGeometry>
        </mxCell>
        <mxCell id="xdvY0asgbzEStagytL9J-19" value="" style="endArrow=diamondThin;html=1;rounded=0;endFill=1;entryX=1;entryY=0.5;entryDx=0;entryDy=0;endSize=10;exitX=0;exitY=0.369;exitDx=0;exitDy=0;exitPerimeter=0;" edge="1" parent="1" source="xdvY0asgbzEStagytL9J-8">
          <mxGeometry width="50" height="50" relative="1" as="geometry">
            <mxPoint x="350" y="430" as="sourcePoint" />
            <mxPoint x="230" y="340" as="targetPoint" />
          </mxGeometry>
        </mxCell>
        <mxCell id="xdvY0asgbzEStagytL9J-24" value="&amp;lt;&amp;lt;component&amp;gt;&amp;gt;&lt;div&gt;&lt;b&gt;UserServices&lt;/b&gt;&lt;/div&gt;" style="rounded=0;whiteSpace=wrap;html=1;" vertex="1" parent="1">
          <mxGeometry x="500" y="398" width="140" height="60" as="geometry" />
        </mxCell>
        <mxCell id="xdvY0asgbzEStagytL9J-27" value="" style="shape=component;jettyWidth=8;jettyHeight=4;" vertex="1" parent="1">
          <mxGeometry x="616" y="402" width="20" height="20" as="geometry" />
        </mxCell>
        <mxCell id="xdvY0asgbzEStagytL9J-28" value="" style="endArrow=none;html=1;rounded=0;exitX=0.814;exitY=0.962;exitDx=0;exitDy=0;exitPerimeter=0;startArrow=oval;startFill=0;endSize=6;targetPerimeterSpacing=10;startSize=15;" edge="1" parent="1">
          <mxGeometry width="50" height="50" relative="1" as="geometry">
            <mxPoint x="449.76" y="427.71" as="sourcePoint" />
            <mxPoint x="500" y="427.8" as="targetPoint" />
          </mxGeometry>
        </mxCell>
        <mxCell id="xdvY0asgbzEStagytL9J-29" value="" style="endArrow=open;html=1;rounded=0;exitX=1.006;exitY=0.6;exitDx=0;exitDy=0;endFill=0;dashed=1;dashPattern=8 8;endSize=10;exitPerimeter=0;" edge="1" parent="1" source="xdvY0asgbzEStagytL9J-7" target="xdvY0asgbzEStagytL9J-24">
          <mxGeometry width="50" height="50" relative="1" as="geometry">
            <mxPoint x="320" y="220" as="sourcePoint" />
            <mxPoint x="240" y="320" as="targetPoint" />
          </mxGeometry>
        </mxCell>
        <mxCell id="xdvY0asgbzEStagytL9J-35" value="&amp;lt;&amp;lt;JSP server&amp;gt;&amp;gt;&lt;div&gt;&lt;b&gt;Tomcat 5.5&lt;/b&gt;&lt;/div&gt;" style="text;html=1;align=center;verticalAlign=middle;resizable=0;points=[];autosize=1;strokeColor=none;fillColor=none;" vertex="1" parent="1">
          <mxGeometry x="30" y="30" width="110" height="40" as="geometry" />
        </mxCell>
        <mxCell id="xdvY0asgbzEStagytL9J-36" value="&amp;lt;&amp;lt;device&amp;gt;&amp;gt;&lt;div&gt;&lt;b&gt;Application Server&lt;/b&gt;&lt;/div&gt;" style="text;html=1;align=center;verticalAlign=middle;resizable=0;points=[];autosize=1;strokeColor=none;fillColor=none;" vertex="1" parent="1">
          <mxGeometry x="-10" y="-47" width="130" height="40" as="geometry" />
        </mxCell>
        <mxCell id="xdvY0asgbzEStagytL9J-42" value="&amp;lt;&amp;lt;schema&amp;gt;&amp;gt;&lt;div&gt;&lt;b&gt;Users&lt;/b&gt;&lt;/div&gt;" style="rounded=0;whiteSpace=wrap;html=1;" vertex="1" parent="1">
          <mxGeometry x="1040" y="200" width="140" height="60" as="geometry" />
        </mxCell>
        <mxCell id="xdvY0asgbzEStagytL9J-43" value="&amp;lt;&amp;lt;schema&amp;gt;&amp;gt;&lt;div&gt;&lt;b&gt;Orders&lt;/b&gt;&lt;/div&gt;" style="rounded=0;whiteSpace=wrap;html=1;" vertex="1" parent="1">
          <mxGeometry x="1040" y="290" width="140" height="60" as="geometry" />
        </mxCell>
        <mxCell id="xdvY0asgbzEStagytL9J-44" value="&amp;lt;&amp;lt;schema&amp;gt;&amp;gt;&lt;div&gt;&lt;b&gt;Inventory&lt;/b&gt;&lt;/div&gt;" style="rounded=0;whiteSpace=wrap;html=1;" vertex="1" parent="1">
          <mxGeometry x="1040" y="378" width="140" height="60" as="geometry" />
        </mxCell>
        <mxCell id="xdvY0asgbzEStagytL9J-47" value="" style="ellipse;shape=umlEntity;whiteSpace=wrap;html=1;" vertex="1" parent="1">
          <mxGeometry x="1153" y="206" width="20" height="20" as="geometry" />
        </mxCell>
        <mxCell id="xdvY0asgbzEStagytL9J-49" value="" style="ellipse;shape=umlEntity;whiteSpace=wrap;html=1;" vertex="1" parent="1">
          <mxGeometry x="1153" y="296" width="20" height="20" as="geometry" />
        </mxCell>
        <mxCell id="xdvY0asgbzEStagytL9J-50" value="" style="ellipse;shape=umlEntity;whiteSpace=wrap;html=1;" vertex="1" parent="1">
          <mxGeometry x="1153" y="384" width="20" height="20" as="geometry" />
        </mxCell>
        <mxCell id="xdvY0asgbzEStagytL9J-51" value="&amp;lt;&amp;lt;protocol&amp;gt;&amp;gt;&lt;div&gt;TCP/IP&lt;/div&gt;" style="text;html=1;align=center;verticalAlign=middle;resizable=0;points=[];autosize=1;strokeColor=none;fillColor=none;" vertex="1" parent="1">
          <mxGeometry x="825" y="286" width="90" height="40" as="geometry" />
        </mxCell>
        <mxCell id="xdvY0asgbzEStagytL9J-52" value="&amp;lt;&amp;lt;databaseSystem&amp;gt;&amp;gt;&lt;div&gt;&lt;b&gt;Oracle 10g&lt;/b&gt;&lt;/div&gt;" style="text;html=1;align=center;verticalAlign=middle;resizable=0;points=[];autosize=1;strokeColor=none;fillColor=none;" vertex="1" parent="1">
          <mxGeometry x="1040" y="160" width="140" height="40" as="geometry" />
        </mxCell>
        <mxCell id="xdvY0asgbzEStagytL9J-53" value="&amp;lt;&amp;lt;device&amp;gt;&amp;gt;&lt;div&gt;&lt;b&gt;Database Server&lt;/b&gt;&lt;/div&gt;" style="text;html=1;align=center;verticalAlign=middle;resizable=0;points=[];autosize=1;strokeColor=none;fillColor=none;" vertex="1" parent="1">
          <mxGeometry x="990" y="90" width="120" height="40" as="geometry" />
        </mxCell>
      </root>
    </mxGraphModel>
  </diagram>
</mxfile>
